<svg width="160" height="173" viewBox="0 0 160 173" fill="none" xmlns="http://www.w3.org/2000/svg">
<path d="M90 82V172H46.319M90 82H64.8834M90 82L46.319 172M64.8834 82H1V127M64.8834 82L34.3067 147.305L25.5706 127.549L1 127M1 127V172H21.7485M1 127L21.7485 172M21.7485 172H46.319" stroke="white" stroke-width="2"/>
<path d="M159 95V145H134.951M159 95H145.172M159 95L134.951 145M145.172 95H110V120M145.172 95L128.337 131.28L123.528 120.305L110 120M110 120V145H121.423M110 120L121.423 145M121.423 145H134.951" stroke="white" stroke-width="2"/>
<path d="M130 1V64H99.0798M130 1H112.221M130 1L99.0798 64M112.221 1H67V32.5M112.221 1L90.5767 46.7134L84.3926 32.8841L67 32.5M67 32.5V64H81.6871M67 32.5L81.6871 64M81.6871 64H99.0798" stroke="white" stroke-width="2"/>
</svg>
