<svg width="100" height="100" viewBox="0 0 100 100" fill="none" xmlns="http://www.w3.org/2000/svg">
<circle cx="50" cy="50" r="50" fill="white"/>
<path d="M64.5833 47.9167H35.4167C33.1155 47.9167 31.25 49.7822 31.25 52.0833V66.6667C31.25 68.9679 33.1155 70.8333 35.4167 70.8333H64.5833C66.8845 70.8333 68.75 68.9679 68.75 66.6667V52.0833C68.75 49.7822 66.8845 47.9167 64.5833 47.9167Z" stroke="black" stroke-width="3" stroke-linecap="round" stroke-linejoin="round"/>
<path d="M39.5833 47.9166V39.5833C39.5807 37.0001 40.5381 34.508 42.2695 32.5909C44.001 30.6739 46.383 29.4685 48.9531 29.2089C51.5233 28.9493 54.0982 29.6539 56.1781 31.186C58.2579 32.7181 59.6943 34.9684 60.2083 37.5" stroke="black" stroke-width="3" stroke-linecap="round" stroke-linejoin="round"/>
</svg>
